<?xml version="1.0" standalone="no"?>
<!DOCTYPE svg PUBLIC "-//W3C//DTD SVG 20010904//EN"
 "http://www.w3.org/TR/2001/REC-SVG-20010904/DTD/svg10.dtd">
<svg version="1.0" xmlns="http://www.w3.org/2000/svg"
 width="198.000000pt" height="198.000000pt" viewBox="0 0 198.000000 198.000000"
 preserveAspectRatio="xMidYMid meet">

<g transform="translate(0.000000,198.000000) scale(0.100000,-0.100000)"
fill="#3c6bd3" stroke="none">
<path d="M1434 1197 c-12 -17 -25 -43 -28 -57 -4 -14 4 -5 16 19 36 67 53 63
23 -6 -30 -68 -45 -86 -46 -57 -1 10 -5 3 -10 -16 -10 -41 -4 -80 14 -80 6 1
32 5 57 11 25 6 54 10 66 10 28 -1 72 47 80 87 6 29 4 32 -18 32 -29 0 -52
-22 -72 -72 -30 -71 -57 -63 -33 9 9 26 14 49 12 51 -10 10 -23 -11 -29 -47
-6 -42 -28 -71 -52 -71 -15 0 -20 45 -5 54 13 8 71 132 71 150 0 26 -24 18
-46 -17z m156 -91 c0 -26 -45 -80 -60 -71 -6 4 -4 20 5 43 23 54 55 70 55 28z"/>
<path d="M1219 1133 c-11 -27 -27 -63 -35 -80 -7 -18 -18 -33 -23 -33 -4 0
-11 -13 -14 -30 -7 -33 -37 -42 -37 -12 0 42 33 114 56 122 13 5 24 12 24 16
0 3 -7 3 -16 0 -12 -4 -15 -2 -10 9 7 20 -6 19 -25 -2 -9 -10 -25 -24 -35 -31
-18 -12 -18 -13 0 -7 20 6 20 9 -3 -79 -11 -46 -8 -56 20 -56 18 0 20 -4 13
-45 -9 -62 10 -60 59 6 15 20 31 57 36 83 8 44 7 46 -12 40 -17 -5 -19 -3 -15
17 3 13 15 48 26 77 27 65 20 69 -9 5z m1 -141 c0 -23 -56 -112 -70 -112 -12
0 -9 17 17 88 11 29 22 42 34 42 12 0 19 -7 19 -18z"/>
<path d="M1500 1170 c0 -5 5 -10 10 -10 6 0 10 5 10 10 0 6 -4 10 -10 10 -5 0
-10 -4 -10 -10z"/>
<path d="M1304 1085 c-12 -8 -27 -28 -34 -44 -28 -68 24 -85 65 -21 42 67 24
104 -31 65z m36 -16 c0 -23 -36 -79 -51 -79 -17 0 -9 47 12 74 25 31 39 33 39
5z"/>
<path d="M615 1067 c-6 -8 -32 -47 -60 -87 -27 -39 -51 -68 -52 -63 -2 5 6 35
17 68 11 32 20 62 20 67 0 14 -19 9 -38 -12 -20 -22 -122 -222 -122 -239 0
-27 19 -7 35 37 21 56 75 155 82 149 2 -3 -5 -33 -16 -68 -36 -109 -23 -108
55 6 32 47 60 83 62 80 3 -2 -5 -25 -17 -50 -30 -64 -38 -105 -19 -105 20 0
61 46 56 62 -3 9 -9 5 -17 -10 -15 -29 -35 -29 -25 0 3 12 22 54 40 94 19 39
34 74 34 78 0 11 -25 6 -35 -7z"/>
<path d="M1052 1037 c-21 -20 -22 -20 -22 -2 0 29 -16 7 -38 -52 -11 -29 -16
-53 -11 -53 5 0 9 4 9 8 0 5 14 28 31 52 22 30 33 39 39 30 6 -9 11 -7 19 8
16 29 -1 35 -27 9z"/>
<path d="M790 1004 c-11 -25 -20 -49 -20 -53 0 -5 -14 -27 -31 -51 -17 -23
-25 -39 -18 -34 9 5 10 2 6 -10 -21 -54 -13 -63 10 -13 16 32 31 56 35 52 21
-21 88 54 88 99 0 22 -23 20 -45 -4 -25 -28 -29 -19 -11 24 8 20 13 36 10 36
-3 0 -14 -21 -24 -46z m50 -25 c0 -21 -41 -79 -56 -79 -20 0 -18 10 11 53 25
36 45 48 45 26z"/>
<path d="M901 1003 c-44 -56 -36 -110 12 -84 24 13 57 69 57 96 0 25 -47 17
-69 -12z m49 0 c0 -27 -38 -83 -55 -83 -8 0 -15 5 -15 11 0 24 45 89 62 89 4
0 8 -8 8 -17z"/>
<path d="M701 940 c-48 -75 -66 -75 -40 -1 6 18 9 34 7 37 -8 7 -39 -97 -32
-108 3 -5 16 -2 31 7 24 16 25 16 18 -7 -4 -12 -14 -32 -21 -43 -16 -22 -18
-45 -5 -45 12 0 49 72 44 86 -2 6 5 35 16 65 11 29 19 54 17 56 -1 2 -17 -19
-35 -47z"/>
</g>
</svg>
